# xmcd
#
# Track frame offsets:
#	183
#	14933
#	33608
#	50070
#	64658
#	76633
#	94308
#	105570
#	120795
#	135720
#	151245
#	165820
#	179245
#	193408
#
# Disc length: 2798 seconds
#
# Revision: 1
# Processed by: cddbd v1.4PL0 Copyright (c) Steve Scherf et al.
# Submitted via: audiograbber 1.80
#
DISCID=bb0aec0e
DTITLE=Melodias Magicas (Guitar) - Melodias Magicas (Guitar)
DYEAR=1900
DGENRE=
TTITLE0=Tema De Lara
TTITLE1=Besame Mucho
TTITLE2=Love Story
TTITLE3=Parlez Moi D Amour
TTITLE4=Are You Lovesome Tonight
TTITLE5=La Paloma
TTITLE6=Moliendo Cafe
TTITLE7=La Mer
TTITLE8=Perfidia
TTITLE9=No Llores Por Mi Argentina
TTITLE10=Maria Elena
TTITLE11=If I Only Had Time
TTITLE12=Las Hojas Muertas
TTITLE13=Cuando Calienta El Sol
EXTD=
EXTT0=
EXTT1=
EXTT2=
EXTT3=
EXTT4=
EXTT5=
EXTT6=
EXTT7=
EXTT8=
EXTT9=
EXTT10=
EXTT11=
EXTT12=
EXTT13=
PLAYORDER=
